<?xml version="1.0" encoding="UTF-8" standalone="no"?><svg xmlns="http://www.w3.org/2000/svg" xmlns:xlink="http://www.w3.org/1999/xlink" data-name="Layer 1" fill="#000000" height="463.4" preserveAspectRatio="xMidYMid meet" version="1" viewBox="-0.0 -0.0 463.0 463.4" width="463" zoomAndPan="magnify"><defs><radialGradient cx="228.57" cy="220.74" gradientUnits="userSpaceOnUse" id="a" r="216.37" xlink:actuate="onLoad" xlink:show="other" xlink:type="simple"><stop offset="0.42" stop-color="#f2f2f2"/><stop offset="1" stop-color="#d73cbe"/></radialGradient></defs><path d="M232.13,128.86a1.07,1.07,0,1,1-1.06-1.07A1.06,1.06,0,0,1,232.13,128.86Zm-1.06-95.3a7.33,7.33,0,1,0-7.33-7.33A7.33,7.33,0,0,0,231.07,33.56Zm0,299.63a.93.93,0,1,0,0,1.85.93.93,0,0,0,0-1.85ZM239.13,1.42a.71.71,0,1,0-.71-.71A.71.71,0,0,0,239.13,1.42ZM85.93,93.6a7.26,7.26,0,1,0-7.26-7.25A7.25,7.25,0,0,0,85.93,93.6Zm216.5-80.94a.79.79,0,0,0,.78-.79.79.79,0,0,0-1.57,0A.79.79,0,0,0,302.43,12.66ZM199,36.08a7.33,7.33,0,1,0-7.33-7.32A7.33,7.33,0,0,0,199,36.08Zm8-33.53a.72.72,0,1,0-.71-.71A.71.71,0,0,0,206.93,2.55ZM223,60a7.9,7.9,0,1,0-7.9-7.89A7.9,7.9,0,0,0,223,60Zm-19.4,45.51a3.42,3.42,0,1,0,3.42-3.41A3.42,3.42,0,0,0,203.61,105.47ZM247.16,84a5.62,5.62,0,1,0-5.62-5.62A5.62,5.62,0,0,0,247.16,84Zm44.23,229.58a.93.93,0,1,0,.93.93A.93.93,0,0,0,291.39,313.59Zm-92-180.85a1.14,1.14,0,1,0,1.14,1.14A1.14,1.14,0,0,0,199.35,132.74Zm79.29-42A5.62,5.62,0,1,0,273,85.08,5.62,5.62,0,0,0,278.64,90.7Zm12.75,56.69a1.07,1.07,0,1,0,1.07,1.07A1.07,1.07,0,0,0,291.39,147.39ZM294.5,43.74A7.47,7.47,0,1,0,287,36.27,7.47,7.47,0,0,0,294.5,43.74Zm-7.93,24.83a7.9,7.9,0,1,0-7.9-7.89A7.9,7.9,0,0,0,286.57,68.57Zm-23.79,259.6a.93.93,0,1,0,.93.93A.93.93,0,0,0,262.78,328.17Zm-7.6-266.76a7.9,7.9,0,1,0-7.9-7.9A7.9,7.9,0,0,0,255.18,61.41Zm7.6,71.4a1.07,1.07,0,1,0,1.07,1.07A1.07,1.07,0,0,0,262.78,132.81Zm4.59-23.33a3.34,3.34,0,1,0,3.34-3.34A3.33,3.33,0,0,0,267.37,109.48Zm-4.19-73.32a7.4,7.4,0,1,0-7.4-7.4A7.41,7.41,0,0,0,263.18,36.16Zm8-31.3a.78.78,0,1,0-.79-.78A.78.78,0,0,0,271.17,4.86ZM215,84a5.62,5.62,0,1,0-5.63-5.62A5.62,5.62,0,0,0,215,84ZM115.61,32.15a.64.64,0,0,0,.64-.64.64.64,0,1,0-.64.64Zm-9.09,114.54a5.69,5.69,0,1,0-5.69-5.69A5.68,5.68,0,0,0,106.52,146.69Zm-2.73,72.14a3.42,3.42,0,1,0-3.41-3.42A3.42,3.42,0,0,0,103.79,218.83Zm6.63-146.14a7.26,7.26,0,1,0-7.26-7.26A7.26,7.26,0,0,0,110.42,72.69Zm23,126a1.14,1.14,0,1,0,1.14,1.13A1.14,1.14,0,0,0,133.46,198.64Zm0,63.5a1.07,1.07,0,1,0,1.07,1.06A1.06,1.06,0,0,0,133.46,262.14ZM88.9,50.16a.64.64,0,0,0,.64-.64.64.64,0,0,0-1.28,0A.64.64,0,0,0,88.9,50.16Zm43.22,39.41a8,8,0,1,0-8-8A8,8,0,0,0,132.12,89.57Zm-20.33,91.28a3.42,3.42,0,1,0,3.41,3.41A3.42,3.42,0,0,0,111.79,180.85Zm-5.27,146.68A5.55,5.55,0,1,0,101,322,5.55,5.55,0,0,0,106.52,327.53Zm-2.73-76.62a3.35,3.35,0,1,0-3.34-3.34A3.34,3.34,0,0,0,103.79,250.91Zm11.34,27.81a3.35,3.35,0,1,0-3.34,3.34A3.35,3.35,0,0,0,115.13,278.72Zm55.61,34.8a1,1,0,1,0,1,1A1,1,0,0,0,170.74,313.52ZM173,115.41a3.42,3.42,0,1,0,3.42-3.41A3.42,3.42,0,0,0,173,115.41Zm-5.39-71.88a7.26,7.26,0,1,0-7.26-7.26A7.26,7.26,0,0,0,167.64,43.53ZM175.2,8.14a.71.71,0,1,0-.71-.71A.71.71,0,0,0,175.2,8.14Zm15.9,56.15a7.9,7.9,0,1,0-7.9-7.9A7.9,7.9,0,0,0,191.1,64.29Zm-53.22-8.43a7.26,7.26,0,1,0-7.26-7.26A7.26,7.26,0,0,0,137.88,55.86ZM183.5,90.77a5.69,5.69,0,1,0-5.7-5.69A5.69,5.69,0,0,0,183.5,90.77Zm-29.41,13.09a5.69,5.69,0,1,0-5.69-5.69A5.7,5.7,0,0,0,154.09,103.86ZM144.56,18.1a.72.72,0,1,0-.71-.71A.71.71,0,0,0,144.56,18.1Zm26.18,129.22a1.14,1.14,0,1,0,1.14,1.14A1.14,1.14,0,0,0,170.74,147.32Zm28.61,180.85a.93.93,0,1,0,.93.93A.93.93,0,0,0,199.35,328.17ZM160.48,74.31a8,8,0,1,0-8-8A8,8,0,0,0,160.48,74.31Zm75.3,29.14a3.35,3.35,0,1,0,3.34-3.34A3.35,3.35,0,0,0,235.78,103.45ZM371.7,299.51a5.41,5.41,0,1,0-5.4-5.41A5.41,5.41,0,0,0,371.7,299.51Zm27.52,2.77a7.69,7.69,0,1,0-7.69-7.68A7.68,7.68,0,0,0,399.22,302.28Zm-14,29a7.69,7.69,0,1,0-7.69-7.68A7.68,7.68,0,0,0,385.25,331.29Zm-5.64-99.8a5.41,5.41,0,1,0,5.4-5.41A5.41,5.41,0,0,0,379.61,231.49ZM371.7,163.4a5.48,5.48,0,1,0,5.48,5.47A5.47,5.47,0,0,0,371.7,163.4ZM381.65,205a5.48,5.48,0,1,0-5.48-5.48A5.48,5.48,0,0,0,381.65,205Zm0,63.94a5.41,5.41,0,1,0-5.41-5.4A5.41,5.41,0,0,0,381.65,268.9Zm33.82-5.34a7.69,7.69,0,1,0-7.69,7.68A7.69,7.69,0,0,0,415.47,263.56ZM376.21,94a7.61,7.61,0,1,0-7.61-7.61A7.61,7.61,0,0,0,376.21,94Zm-17.64,19.36a7.76,7.76,0,1,0,7.75-7.75A7.76,7.76,0,0,0,358.57,113.32Zm59.78,118.17a7.68,7.68,0,1,0-7.68,7.68A7.68,7.68,0,0,0,418.35,231.49Zm-21.22-113a7.61,7.61,0,1,0-7.62-7.61A7.61,7.61,0,0,0,397.13,118.45ZM385.58,60.74a.86.86,0,1,0,0-1.71.85.85,0,0,0-.85.85A.86.86,0,0,0,385.58,60.74ZM442,138.49a.93.93,0,1,0-.92-.92A.93.93,0,0,0,442,138.49Zm-16,60.89a7.76,7.76,0,1,0,7.75-7.76A7.75,7.75,0,0,0,426.05,199.38Zm-40.8-67.76a7.76,7.76,0,1,0,7.75,7.75A7.75,7.75,0,0,0,385.25,131.62Zm74.49,68.73a1,1,0,1,0-1-1A1,1,0,0,0,459.74,200.35ZM453,168.84a1,1,0,1,0-1-1A1,1,0,0,0,453,168.84Zm-34.51-.78a7.76,7.76,0,1,0,7.75-7.76A7.76,7.76,0,0,0,418.53,168.06ZM400,199.42a7.76,7.76,0,1,0,7.75-7.76A7.75,7.75,0,0,0,400,199.42Zm26.87-89.37a.93.93,0,1,0-.93-.93A.93.93,0,0,0,426.9,110.05Zm-27.68,50.58a7.76,7.76,0,1,0,7.75,7.75A7.76,7.76,0,0,0,399.22,160.63ZM414,146a7.69,7.69,0,1,0-7.69-7.69A7.68,7.68,0,0,0,414,146Zm-6-62a.93.93,0,1,0-.92-.92A.93.93,0,0,0,408,84ZM324.59,140.4a3.27,3.27,0,1,0,3.27,3.27A3.27,3.27,0,0,0,324.59,140.4Zm4.08,121.88a.93.93,0,0,0,0,1.85.93.93,0,1,0,0-1.85ZM332.3,24.72a.78.78,0,1,0-.79-.78A.78.78,0,0,0,332.3,24.72Zm-3.63,174.13a.93.93,0,1,0,.93.92A.92.92,0,0,0,328.67,198.85ZM324.25,56.07a7.47,7.47,0,1,0-7.47-7.47A7.46,7.46,0,0,0,324.25,56.07Zm.34,260.11a3.13,3.13,0,1,0,3.13,3.13A3.13,3.13,0,0,0,324.59,316.18ZM314.1,290.89a.93.93,0,1,0,.92.92A.93.93,0,0,0,314.1,290.89ZM308,103.72a5.55,5.55,0,1,0-5.55-5.55A5.55,5.55,0,0,0,308,103.72Zm8.14-22.56a7.83,7.83,0,1,0-7.83-7.83A7.83,7.83,0,0,0,316.18,81.16Zm-16.37,38.67a3.35,3.35,0,1,0,3.34,3.34A3.35,3.35,0,0,0,299.81,119.83Zm0,216.85a3.13,3.13,0,1,0,3.13,3.13A3.13,3.13,0,0,0,299.81,336.68ZM314.1,170.17a1,1,0,1,0,1,1A1,1,0,0,0,314.1,170.17Zm18.67,61.32a.93.93,0,1,0,.93-.93A.93.93,0,0,0,332.77,231.49Zm22.84,95.89a5.41,5.41,0,1,0-5.41-5.4A5.41,5.41,0,0,0,355.61,327.38Zm6.95-95.89a3.21,3.21,0,1,0-3.2,3.2A3.2,3.2,0,0,0,362.56,231.49ZM360.2,40.9a.85.85,0,1,0-.86-.85A.85.85,0,0,0,360.2,40.9Zm-1.67,158.69a3.21,3.21,0,1,0-3.2,3.2A3.21,3.21,0,0,0,358.53,199.59ZM361.16,141a5.55,5.55,0,1,0-5.55,5.55A5.55,5.55,0,0,0,361.16,141Zm-9,122.39a3.21,3.21,0,1,0,3.21-3.2A3.21,3.21,0,0,0,352.12,263.39Zm-23.59-146.3a5.55,5.55,0,1,0,5.55-5.55A5.54,5.54,0,0,0,328.53,117.09ZM351.72,73a7.54,7.54,0,1,0-7.55-7.54A7.55,7.55,0,0,0,351.72,73Zm-8.23,217.19a3.13,3.13,0,1,0,3.13,3.13A3.13,3.13,0,0,0,343.49,290.16ZM343.05,98.9a7.83,7.83,0,1,0-7.83-7.83A7.83,7.83,0,0,0,343.05,98.9Zm.44,67.51a3.28,3.28,0,1,0,3.27,3.28A3.28,3.28,0,0,0,343.49,166.41ZM168.23,396.64a7.76,7.76,0,1,0-7.75,7.75A7.76,7.76,0,0,0,168.23,396.64Zm70.9,64.56a1.07,1.07,0,1,0,0,2.13,1.07,1.07,0,0,0,0-2.13Zm55.37-42.32a7.83,7.83,0,1,0,7.82,7.82A7.82,7.82,0,0,0,294.5,418.88Zm-41.93-34.29a5.41,5.41,0,1,0-5.41,5.41A5.41,5.41,0,0,0,252.57,384.59Zm-21.5,44.33a7.83,7.83,0,1,0,7.82,7.83A7.84,7.84,0,0,0,231.07,428.92Zm-.38-18A7.68,7.68,0,1,0,223,418.6,7.68,7.68,0,0,0,230.69,410.91Zm32.17-1.44a7.69,7.69,0,1,0-7.68,7.68A7.68,7.68,0,0,0,262.86,409.47ZM85.77,133.89a8,8,0,1,0-8-8A8,8,0,0,0,85.77,133.89Zm198.28,244a5.41,5.41,0,1,0-5.41,5.41A5.41,5.41,0,0,0,284.05,377.9Zm-63.6,6.69a5.48,5.48,0,1,0-5.47,5.48A5.48,5.48,0,0,0,220.45,384.59Zm42.73,41.81a7.83,7.83,0,1,0,7.82,7.82A7.82,7.82,0,0,0,263.18,426.4Zm7.53-76a3.13,3.13,0,1,0,3.13,3.13A3.13,3.13,0,0,0,270.71,350.37Zm.46,107.46a1.07,1.07,0,1,0,1.06,1.07A1.07,1.07,0,0,0,271.17,457.83ZM239.12,356.32a3.21,3.21,0,1,0,3.2,3.2A3.2,3.2,0,0,0,239.12,356.32ZM167.64,419a7.76,7.76,0,1,0,7.75,7.75A7.76,7.76,0,0,0,167.64,419Zm-8.07-54.14a5.48,5.48,0,1,0-5.48,5.48A5.48,5.48,0,0,0,159.57,364.81Zm-7-34.47a3.28,3.28,0,1,0-3.28,3.27A3.28,3.28,0,0,0,152.57,330.34ZM148,170a1.14,1.14,0,1,0,1.14,1.13A1.14,1.14,0,0,0,148,170Zm0,120.72a1.07,1.07,0,1,0,1.06,1.06A1.06,1.06,0,0,0,148,290.75Zm31.61,56.82a3.21,3.21,0,1,0-3.2,3.2A3.2,3.2,0,0,0,179.65,347.57ZM199,426.47a7.76,7.76,0,1,0,7.75,7.75A7.75,7.75,0,0,0,199,426.47ZM207,354.3a3.21,3.21,0,1,0,3.2,3.2A3.2,3.2,0,0,0,207,354.3Zm-.1,105.85a1,1,0,1,0,1,1A1,1,0,0,0,206.93,460.15Zm-8.07-53.56a7.76,7.76,0,1,0-7.76,7.75A7.76,7.76,0,0,0,198.86,406.59ZM189,377.9a5.48,5.48,0,1,0-5.47,5.48A5.47,5.47,0,0,0,189,377.9ZM175.2,454.55a1,1,0,1,0,1,1A1,1,0,0,0,175.2,454.55ZM426.28,287.09a7.83,7.83,0,1,0,7.83,7.83A7.83,7.83,0,0,0,426.28,287.09Zm-29.15,57.15a7.9,7.9,0,1,0,7.89,7.9A7.9,7.9,0,0,0,397.13,344.24Zm36.67-88.47a7.83,7.83,0,1,0,7.83,7.83A7.84,7.84,0,0,0,433.8,255.77ZM408,378.78a1.14,1.14,0,1,0,1.14,1.14A1.14,1.14,0,0,0,408,378.78Zm6-61.93a7.83,7.83,0,1,0,7.82,7.83A7.82,7.82,0,0,0,414,316.85Zm12.94,35.87a1.14,1.14,0,1,0,1.14,1.14A1.14,1.14,0,0,0,426.9,352.72ZM442,324.27a1.14,1.14,0,1,0,1.14,1.14A1.14,1.14,0,0,0,442,324.27Zm20-93.78a1,1,0,1,0,1,1A1,1,0,0,0,462,230.49Zm-2.25,32.07a1.07,1.07,0,1,0,1.07,1.07A1.07,1.07,0,0,0,459.74,262.56Zm-23.41-38.9a7.83,7.83,0,1,0,7.82,7.83A7.84,7.84,0,0,0,436.33,223.66ZM453,294.07a1.07,1.07,0,1,0,1.07,1.07A1.07,1.07,0,0,0,453,294.07Zm-79,55.59a7.69,7.69,0,1,0-7.69,7.68A7.69,7.69,0,0,0,374,349.66ZM332.3,437.9a1.14,1.14,0,1,0,1.13,1.14A1.14,1.14,0,0,0,332.3,437.9Zm7.18-92a5.41,5.41,0,1,0-5.4,5.41A5.4,5.4,0,0,0,339.48,345.89Zm-15.23,60.66a7.83,7.83,0,1,0,7.83,7.83A7.83,7.83,0,0,0,324.25,406.55Zm-.39-16.9a7.69,7.69,0,1,0-7.68,7.68A7.68,7.68,0,0,0,323.86,389.65Zm-10.41-24.84a5.41,5.41,0,1,0-5.41,5.41A5.41,5.41,0,0,0,313.45,364.81Zm-11,85.16a1.14,1.14,0,1,0,1.13,1.14A1.14,1.14,0,0,0,302.43,450Zm48.3-78.06a7.69,7.69,0,1,0-7.68,7.68A7.68,7.68,0,0,0,350.73,371.91Zm25.48-3.18a7.9,7.9,0,1,0,7.9,7.9A7.9,7.9,0,0,0,376.21,368.73ZM385.58,402a1.14,1.14,0,1,0,1.14,1.14A1.14,1.14,0,0,0,385.58,402ZM360.2,421.79a1.14,1.14,0,1,0,1.13,1.14A1.14,1.14,0,0,0,360.2,421.79Zm-8.48-32.14a7.9,7.9,0,1,0,7.89,7.9A7.9,7.9,0,0,0,351.72,389.65ZM294.25,402.3a7.69,7.69,0,1,0-7.68,7.69A7.68,7.68,0,0,0,294.25,402.3ZM48.18,145.56a7.26,7.26,0,1,0-7.26-7.26A7.26,7.26,0,0,0,48.18,145.56ZM28.33,206.71A7.33,7.33,0,1,0,21,199.38,7.33,7.33,0,0,0,28.33,206.71ZM5.2,184.19a.71.71,0,1,0-.72-.71A.71.71,0,0,0,5.2,184.19Zm22-60.47a.64.64,0,1,0-.64-.64A.64.64,0,0,0,27.18,123.72Zm8.67,51.6a7.26,7.26,0,1,0-7.25-7.26A7.26,7.26,0,0,0,35.85,175.32ZM.71,246.89a.71.71,0,1,0,.71.71A.71.71,0,0,0,.71,246.89Zm13.37-93.67a.71.71,0,1,0-.72-.71A.71.71,0,0,0,14.08,153.22Zm19.06,78.27a7.33,7.33,0,1,0-7.33,7.33A7.33,7.33,0,0,0,33.14,231.49ZM.71,214.67a.71.71,0,1,0,.71.71A.71.71,0,0,0,.71,214.67ZM27.18,339.12a.78.78,0,1,0,.78.78A.78.78,0,0,0,27.18,339.12Zm-22-60.4a.78.78,0,1,0,.78.78A.78.78,0,0,0,5.2,278.72Zm8.88,31a.78.78,0,1,0,.78.78A.78.78,0,0,0,14.08,309.69Zm38.11-86.4a7.9,7.9,0,1,0-7.9-7.9A7.9,7.9,0,0,0,52.19,223.29Zm0,32.2a7.9,7.9,0,1,0-7.9-7.9A7.9,7.9,0,0,0,52.19,255.49Zm28.3-61.63a5.62,5.62,0,1,0,5.62,5.62A5.62,5.62,0,0,0,80.49,193.86Zm-19.14-40.3a7.9,7.9,0,1,0,7.9-7.89A7.9,7.9,0,0,0,61.35,153.56ZM80.49,269.12a5.62,5.62,0,1,0-5.62-5.62A5.62,5.62,0,0,0,80.49,269.12ZM44.25,96.4a.64.64,0,1,0-.64-.64A.64.64,0,0,0,44.25,96.4ZM82.74,231.49a5.62,5.62,0,1,0-5.62,5.62A5.62,5.62,0,0,0,82.74,231.49ZM65,71.72a.64.64,0,0,0,0-1.28.64.64,0,0,0,0,1.28ZM65,118.1a7.26,7.26,0,1,0-7.26-7.26A7.26,7.26,0,0,0,65,118.1ZM57.94,287.17a7.9,7.9,0,1,0-7.9-7.9A7.9,7.9,0,0,0,57.94,287.17Zm0-111.36a7.9,7.9,0,1,0,7.89,7.9A7.9,7.9,0,0,0,57.94,175.81ZM35.73,263.6a7.4,7.4,0,1,0-7.4,7.4A7.4,7.4,0,0,0,35.73,263.6Zm12.45,53.61a7.47,7.47,0,1,0,7.47,7.47A7.46,7.46,0,0,0,48.18,317.21Zm81.32-85.72a1.07,1.07,0,1,0-1.06,1.07A1.06,1.06,0,0,0,129.5,231.49ZM124,306.89a3.27,3.27,0,1,0,3.27-3.27A3.27,3.27,0,0,0,124,306.89Zm4-184.11a5.7,5.7,0,1,0-5.69-5.69A5.69,5.69,0,0,0,128.06,122.78ZM115.61,430.55a.93.93,0,1,0,.92.92A.93.93,0,0,0,115.61,430.55Zm-5.19-40.61a7.61,7.61,0,1,0,7.61,7.61A7.6,7.6,0,0,0,110.42,389.94Zm-67.1-95a7.47,7.47,0,1,0-7.47,7.47A7.46,7.46,0,0,0,43.32,294.92Zm71.46,66.39a7.83,7.83,0,1,0-7.83,7.82A7.83,7.83,0,0,0,114.78,361.31Zm23.1,45.38a7.69,7.69,0,1,0,7.69,7.69A7.68,7.68,0,0,0,137.88,406.69Zm6.68,37.91a1,1,0,0,0,0,2,1,1,0,1,0,0-2Zm-4.68-63.22a7.76,7.76,0,1,0-7.76,7.76A7.75,7.75,0,0,0,139.88,381.38Zm-6.27-35.49a5.55,5.55,0,1,0-5.55,5.55A5.56,5.56,0,0,0,133.61,345.89Zm-6.33-193.22a3.42,3.42,0,1,0,3.42,3.41A3.41,3.41,0,0,0,127.28,152.67ZM65,344.6a7.54,7.54,0,1,0,7.54,7.54A7.53,7.53,0,0,0,65,344.6ZM65,391a.86.86,0,0,0-.85.86.85.85,0,1,0,1.7,0A.86.86,0,0,0,65,391Zm4.29-89.45a7.83,7.83,0,1,0,7.83,7.83A7.83,7.83,0,0,0,69.25,301.59Zm80-165.53a3.42,3.42,0,1,0-3.41-3.42A3.42,3.42,0,0,0,149.29,136.06Zm-105,230.31a.85.85,0,1,0,.85.85A.85.85,0,0,0,44.25,366.37ZM88.9,412.53a.93.93,0,1,0,0,1.85.93.93,0,0,0,0-1.85Zm1.53-124A5.55,5.55,0,1,0,96,294.1,5.55,5.55,0,0,0,90.43,288.56ZM107,109.64a8,8,0,1,0-8-8A8,8,0,0,0,107,109.64ZM90.43,163.18a5.7,5.7,0,1,0,5.69,5.69A5.69,5.69,0,0,0,90.43,163.18ZM85.77,329.23a7.83,7.83,0,1,0,7.82,7.83A7.83,7.83,0,0,0,85.77,329.23ZM85.93,369a7.61,7.61,0,1,0,7.61,7.61A7.62,7.62,0,0,0,85.93,369Z" fill="url(#a)"/></svg>